<svg width="18" height="11" viewBox="0 0 18 11" fill="none" xmlns="http://www.w3.org/2000/svg">
<path d="M12.1484 0.65625C12.2266 0.578125 12.3438 0.5 12.4609 0.5C12.5781 0.5 12.6953 0.578125 12.8125 0.65625L17.3438 5.1875C17.4219 5.26562 17.5 5.38281 17.5 5.5C17.5 5.65625 17.4219 5.73438 17.3438 5.8125L12.8125 10.3438C12.6953 10.4609 12.5781 10.5 12.4609 10.5C12.3438 10.5 12.2266 10.4609 12.1484 10.3438L11.875 10.0703C11.7578 9.99219 11.7188 9.91406 11.7188 9.75781C11.7188 9.64062 11.7578 9.52344 11.875 9.40625L15.1562 6.16406H0.46875C0.3125 6.16406 0.195312 6.125 0.117188 6.04688C0.0390625 5.96875 0 5.85156 0 5.69531V5.30469C0 5.1875 0.0390625 5.07031 0.117188 4.99219C0.195312 4.91406 0.3125 4.83594 0.46875 4.83594H15.1562L11.875 1.59375C11.7578 1.51562 11.7188 1.39844 11.7188 1.24219C11.7188 1.125 11.7578 1.00781 11.875 0.929688L12.1484 0.65625Z" fill="#554D89"/>
</svg>
