<svg width="32" height="32" viewBox="0 0 32 32" fill="none" xmlns="http://www.w3.org/2000/svg">
<path d="M12 14V22C12 22.5625 11.75 23.0625 11.375 23.4375C11 23.8125 10.5 24 10 24H8C6.875 24 5.875 23.625 5.125 22.8125C4.375 22.0625 4 21.125 4 20V16C4 14.875 4.375 13.9375 5.125 13.1875C5.875 12.4375 6.875 12 8 12H10C10.5 12 11 12.25 11.375 12.625C11.75 13 12 13.5 12 14ZM10 22V14H8C7.4375 14 6.9375 14.25 6.5625 14.625C6.1875 15 6 15.5 6 16V20C6 20.5625 6.1875 21.0625 6.5625 21.4375C6.9375 21.8125 7.4375 22 8 22H10ZM24 24H22C21.4375 24 20.9375 23.8125 20.5625 23.4375C20.1875 23.0625 20 22.5625 20 22V14C20 13.5 20.1875 13 20.5625 12.625C20.9375 12.25 21.4375 12 22 12H24C25.125 12 26.0625 12.4375 26.8125 13.1875C27.5625 13.9375 28 14.875 28 16V20C28 21.125 27.5625 22.0625 26.8125 22.8125C26.0625 23.625 25.125 24 24 24ZM22 14V22H24C24.5 22 25 21.8125 25.375 21.4375C25.75 21.0625 26 20.5625 26 20V16C26 15.5 25.75 15 25.375 14.625C25 14.25 24.5 14 24 14H22ZM16 0C18.875 0 21.5 0.75 24 2.1875C26.4375 3.625 28.375 5.5625 29.8125 8C31.25 10.5 32 13.125 32 16V27C32 28.375 31.5 29.5625 30.5 30.5625C29.5 31.5625 28.375 32 27 32H15C14.125 32 13.4375 31.75 12.875 31.125C12.25 30.5625 12 29.875 12 29C12 28.1875 12.25 27.5 12.875 26.875C13.4375 26.3125 14.125 26 15 26H19C19.8125 26 20.5 26.3125 21.125 26.875C21.6875 27.5 22 28.1875 22 29C22 29.375 21.9375 29.6875 21.8125 30H27C27.8125 30 28.5 29.75 29.125 29.125C29.6875 28.5625 30 27.875 30 27V16C30 13.5 29.375 11.125 28.125 9C26.875 6.875 25.125 5.125 23 3.875C20.875 2.625 18.5 2 16 2C13.4375 2 11.0625 2.6875 8.9375 3.9375C6.875 5.1875 5.25 6.9375 4 9.0625C2.75 11.1875 2.0625 13.5 2 16V17.5C2 17.625 1.9375 17.75 1.8125 17.875C1.6875 18 1.625 18 1.5 18H0.5C0.375 18 0.25 18 0.125 17.875C0 17.75 0 17.625 0 17.5V16C0.0625 13.125 0.8125 10.5 2.25 8.0625C3.6875 5.625 5.5625 3.6875 7.9375 2.25C10.4375 0.75 13.125 0 16 0ZM19 30C19.25 30 19.5 29.9375 19.6875 29.75C19.875 29.5625 20 29.3125 20 29C20 28.75 19.875 28.5 19.6875 28.3125C19.5 28.125 19.25 28 19 28H15C14.6875 28 14.4375 28.125 14.25 28.3125C14.0625 28.5 14 28.75 14 29C14 29.3125 14.0625 29.5625 14.25 29.75C14.4375 29.9375 14.6875 30 15 30H19Z" fill="#6852ED"/>
</svg>
