<svg width="40" height="40" viewBox="0 0 40 40" fill="none" xmlns="http://www.w3.org/2000/svg">
<path fill-rule="evenodd" clip-rule="evenodd" d="M31.5299 26.364C28.9556 30.906 23.3672 32.9297 22.5136 29.6617C20.8428 33.9387 22.9783 37.243 27.1383 37.442C21.5956 37.7664 19.1855 33.4084 21.1489 28.755C24.8648 19.947 45.6248 19.256 36.2611 7.5797C41.2811 15.3644 27.6787 18.5857 21.6733 19.145C13.1055 19.9424 9.06377 25.7214 9.22242 30.9404C9.43123 37.799 17.8102 40.685 24.4028 39.386C29.9421 38.295 34.8031 34.956 37.6899 30.1844C42.758 21.8067 37.8102 15.2844 31.5299 26.364Z" fill="url(#paint0_linear)"/>
<path fill-rule="evenodd" clip-rule="evenodd" d="M1.31336 13.3165C3.71472 9.77521 7.82387 7.97621 12.7418 7.36354C18.7225 1.21454 27.3178 3.67587 27.9873 6.67521C30.2415 5.51921 29.9388 3.33421 26.4425 2.08154C34.5774 4.42921 29.5086 9.74454 21.2578 9.05221C2.0659 7.44154 -7.10156 21.5722 6.45031 34.2865C2.15878 24.8572 11.8971 16.7022 22.7032 16.3862C29.1293 16.1985 40.7832 11.9142 34.6581 5.80787C24.349 -4.46846 6.24726 -0.580792 1.31336 13.3165Z" fill="url(#paint1_linear)"/>
<defs>
<linearGradient id="paint0_linear" x1="44.5415" y1="32.3105" x2="37.2091" y2="13.8533" gradientUnits="userSpaceOnUse">
<stop stop-color="#6852ED"/>
<stop offset="1" stop-color="#BA43FC"/>
</linearGradient>
<linearGradient id="paint1_linear" x1="36.384" y1="0" x2="0" y2="0" gradientUnits="userSpaceOnUse">
<stop stop-color="#6852ED"/>
<stop offset="1" stop-color="#BA43FC"/>
</linearGradient>
</defs>
</svg>
