<svg width="17" height="17" viewBox="0 0 17 17" fill="none" xmlns="http://www.w3.org/2000/svg">
<path d="M14.75 0.1875C15.0938 0 15.4688 -0.03125 15.8438 0.0625C16.2188 0.15625 16.5 0.34375 16.7188 0.65625C16.9375 0.96875 17.0312 1.34375 16.9688 1.71875L15.125 13.8438C15.0312 14.3438 14.7812 14.6875 14.375 14.9062C14.125 15.0312 13.9062 15.0938 13.6562 15.0938C13.4375 15.0938 13.25 15.0625 13.0625 15L9.5625 13.5312L8.21875 15.4062C7.90625 15.7812 7.5625 15.9688 7.125 16C6.6875 16.0312 6.3125 15.9062 6 15.625C5.65625 15.3438 5.5 14.9688 5.5 14.5V11.875L1.9375 10.375C1.5625 10.25 1.28125 10 1.125 9.625C0.96875 9.28125 0.9375 8.9375 1.0625 8.5625C1.15625 8.1875 1.375 7.90625 1.75 7.6875L14.75 0.1875ZM7 14.5L8.15625 12.9375L7 12.4688V14.5ZM13.6562 13.5938L15.5 1.5L2.5 9L5.875 10.4062L12.4688 4.625C12.5938 4.5 12.75 4.46875 12.9375 4.53125C13.0938 4.59375 13.2188 4.6875 13.2812 4.84375C13.3438 5 13.3125 5.15625 13.2188 5.28125L8.84375 11.625L13.6562 13.5938Z" fill="#6852ED"/>
</svg>
