<svg width="32" height="32" viewBox="0 0 32 32" fill="none" xmlns="http://www.w3.org/2000/svg">
<path d="M16 21.25C16.5 21.25 16.875 21.4375 17.25 21.75C17.5625 22.125 17.75 22.5 17.75 23C17.75 23.5 17.5625 23.9375 17.25 24.25C16.875 24.625 16.5 24.75 16 24.75C15.5 24.75 15.0625 24.625 14.75 24.25C14.375 23.9375 14.25 23.5 14.25 23C14.25 22.5 14.375 22.125 14.75 21.75C15.0625 21.4375 15.5 21.25 16 21.25ZM16.5 19.75C16.6875 19.75 16.875 19.6875 17 19.5625C17.125 19.4375 17.25 19.25 17.25 19C17.25 18.5 17.4375 18 17.8125 17.5C18.0625 17.25 18.5 16.9375 19.25 16.4375C20.125 15.875 20.8125 15.375 21.1875 14.875C21.75 14.1875 22.0625 13.3125 22.0625 12.25C22.0625 10.75 21.4375 9.5625 20.3125 8.625C19.125 7.75 17.6875 7.25 16 7.25C14.625 7.25 13.5 7.5 12.5625 8C11.75 8.5 11 9.1875 10.25 10.0625C10.125 10.25 10.0625 10.4375 10.125 10.625C10.125 10.875 10.25 11 10.4375 11.125L11.25 11.6875C11.375 11.8125 11.5625 11.875 11.8125 11.8125C12 11.8125 12.125 11.6875 12.25 11.5625C12.75 10.9375 13.25 10.5 13.8125 10.1875C14.375 9.9375 15.125 9.75 16 9.75C17.125 9.75 18.0625 10.0625 18.6875 10.5625C19.25 11.0625 19.5625 11.625 19.5625 12.25C19.5625 12.8125 19.3125 13.3125 18.9375 13.6875C18.6875 13.9375 18.25 14.3125 17.5625 14.75C16.625 15.375 16 15.875 15.625 16.25C15 17 14.75 17.9375 14.75 19C14.75 19.25 14.8125 19.4375 14.9375 19.5625C15.0625 19.6875 15.25 19.75 15.5 19.75H16.5ZM16 2.5C13.5 2.5 11.25 3.125 9.1875 4.3125C7.125 5.5625 5.5 7.1875 4.3125 9.25C3.0625 11.3125 2.5 13.5625 2.5 16C2.5 18.5 3.0625 20.75 4.3125 22.8125C5.5 24.875 7.125 26.5 9.1875 27.6875C11.25 28.9375 13.5 29.5 16 29.5C18.4375 29.5 20.6875 28.9375 22.75 27.6875C24.8125 26.5 26.4375 24.875 27.6875 22.8125C28.875 20.75 29.5 18.5 29.5 16C29.5 13.5625 28.875 11.3125 27.6875 9.25C26.4375 7.1875 24.8125 5.5625 22.75 4.3125C20.625 3.125 18.375 2.5 16 2.5ZM16 0.5C18.75 0.5 21.375 1.25 23.75 2.625C26.125 4 28 5.875 29.375 8.25C30.75 10.625 31.5 13.25 31.5 16C31.5 18.8125 30.75 21.375 29.375 23.75C28 26.125 26.125 28.0625 23.75 29.4375C21.375 30.8125 18.75 31.5 16 31.5C13.1875 31.5 10.625 30.8125 8.25 29.4375C5.875 28.0625 3.9375 26.125 2.5625 23.75C1.1875 21.375 0.5 18.8125 0.5 16C0.5 13.25 1.1875 10.625 2.5625 8.25C3.9375 5.875 5.875 4 8.25 2.625C10.625 1.25 13.1875 0.5 16 0.5Z" fill="#6852ED"/>
</svg>
