<svg width="110" height="110" viewBox="0 0 110 110" fill="none" xmlns="http://www.w3.org/2000/svg">
<path fill-rule="evenodd" clip-rule="evenodd" d="M55 110C85.3757 110 110 85.3757 110 55C110 24.6243 85.3757 0 55 0C24.6243 0 0 24.6243 0 55C0 85.3757 24.6243 110 55 110Z" fill="#6852ED"/>
<path d="M67.6094 63.7461C67.8047 64.0391 68 64.332 68 64.625C68 64.918 67.8047 65.2109 67.6094 65.4062L56.2812 76.7344C56.0859 77.0273 55.793 77.125 55.5 77.125C55.1094 77.125 54.9141 77.0273 54.7188 76.7344L43.3906 65.4062C43.0977 65.2109 43 64.918 43 64.625C43 64.332 43.0977 64.0391 43.3906 63.7461L44.0742 63.0625C44.2695 62.8672 44.4648 62.6719 44.8555 62.6719C45.1484 62.6719 45.4414 62.8672 45.7344 63.0625L53.8398 71.2656V34.5469C53.8398 34.2539 53.9375 33.9609 54.1328 33.7656C54.3281 33.5703 54.6211 33.375 55.0117 33.375H55.9883C56.2812 33.375 56.5742 33.5703 56.7695 33.7656C56.9648 33.9609 57.1602 34.2539 57.1602 34.5469V71.2656L65.2656 63.0625C65.4609 62.8672 65.7539 62.6719 66.1445 62.6719C66.4375 62.6719 66.7305 62.8672 66.9258 63.0625L67.6094 63.7461Z" fill="white"/>
</svg>
